<svg width="32" height="32" xmlns="http://www.w3.org/2000/svg">
 <title/>

 <g>
  <title>background</title>
  <rect fill="none" id="canvas_background" height="402" width="622" y="-1" x="-1"/>
 </g>
 <g>
  <title>Layer 1</title>
  <path fill="#ffffff" id="svg_1" d="m30.71,15.29l-14,-14a1,1 0 0 0 -1.42,0l-14,14a1,1 0 0 0 -0.21,1.09a1,1 0 0 0 0.92,0.62l3,0l0,13a1,1 0 0 0 1,1l8,0a1,1 0 0 0 1,-1l0,-6l2,0l0,6a1,1 0 0 0 1,1l8,0a1,1 0 0 0 1,-1l0,-13l3,0a1,1 0 0 0 0.92,-0.62a1,1 0 0 0 -0.21,-1.09z"/>
 </g>
</svg>